PathFileType	4	(X/Y/Z)	/Users/niels/Desktop/University/Third Semester/Perception and Action/Exam/Gymnastics Motion Tracking/Code for Gym Tracking/Analyzed Data/Webcam_Backflip/id1_7_trajectory_Sports2D/id1_7_trajectory_Sports2D_px_person00.trc
DataRate	CameraRate	NumFrames	NumMarkers	Units	OrigDataRate	OrigDataStartFrame	OrigNumFrames
29.71698113207547	29.71698113207547	7	22	m	29.71698113207547	39	106
Frame#	Time	Hip			RHip			RKnee			RAnkle			RBigToe			RSmallToe			RHeel			LHip			LKnee			LAnkle			LBigToe			LSmallToe			LHeel			Neck			Head			Nose			RShoulder			RElbow			RWrist			LShoulder			LElbow			LWrist		
		X1	Y1	Z1	X2	Y2	Z2	X3	Y3	Z3	X4	Y4	Z4	X5	Y5	Z5	X6	Y6	Z6	X7	Y7	Z7	X8	Y8	Z8	X9	Y9	Z9	X10	Y10	Z10	X11	Y11	Z11	X12	Y12	Z12	X13	Y13	Z13	X14	Y14	Z14	X15	Y15	Z15	X16	Y16	Z16	X17	Y17	Z17	X18	Y18	Z18	X19	Y19	Z19	X20	Y20	Z20	X21	Y21	Z21	X22	Y22	Z22
39	1.3123809523809522	0.9738172337690968	-0.5467363907772671	0.0	0.9597692079350058	-0.5526499002697014	0.0	0.9896024698034624	-0.6661718951288401	0.0	0.9314660279130891	-0.7771810215630978	0.0	0.957342562981379	-0.8185337726109871	0.0	0.9431716941623904	-0.817492758936914	0.0	0.916654767088349	-0.7864957755333959	0.0	0.9895877268751966	-0.5479744348912412	0.0	1.0429313647778968	-0.6535779899441029	0.0	1.0134197328223438	-0.7651868680551389	0.0	1.0378637533292914	-0.804404092249926	0.0	1.041499685738609	-0.794397841150217	0.0	1.0005917283831647	-0.7749875624762049	0.0	0.9683491528670554	-0.37740491099174106	0.0	0.9737541251820748	-0.3221939170018847	0.0	0.9932851199485982	-0.3472015299884663	0.0	0.9511891834599892	-0.3931719872646955	0.0	0.984031441796886	-0.3200563430220754	0.0	1.0150233085779357	-0.2539433742051878	0.0	0.9895767116225137	-0.3876519130470169	0.0	1.0439367885278952	-0.3473811655193609	0.0	1.099252861190315	-0.30362294782254334	0.0
40	1.346031746031746	0.9743704687327495	-0.5329467549147011	0.0	0.9604024513345795	-0.5386659593763313	0.0	0.9808669359911676	-0.6552065851447503	0.0	0.9359028449809158	-0.77185091783395	0.0	0.960479421512217	-0.8131329517439179	0.0	0.946258788204021	-0.8121699684226098	0.0	0.9227316519440285	-0.7821428556589881	0.0	0.9905309341161905	-0.5340168800132009	0.0	1.0402329779835608	-0.6415873780091064	0.0	1.022094441077423	-0.7566611525577585	0.0	1.0440128917966445	-0.7949318541915334	0.0	1.04783855548788	-0.7850011419350948	0.0	1.0110664365380193	-0.7686901955934299	0.0	0.9652120945042264	-0.36235556328025914	0.0	0.9683255377083899	-0.30617766957768766	0.0	0.9875312891391337	-0.33050911490470763	0.0	0.9499923925664462	-0.37726919862647207	0.0	0.9789760020698662	-0.2996059838124628	0.0	1.0055305776137102	-0.23170269107962355	0.0	0.9861367317524443	-0.3718961789462171	0.0	1.0378824703838767	-0.3293177746782312	0.0	1.0904557841301104	-0.28612621684026684	0.0
41	1.3796825396825394	0.9744226443410293	-0.5233748002333171	0.0	0.9603041515443189	-0.5286985088416706	0.0	0.9726839263356121	-0.6482193414407637	0.0	0.9399637532150286	-0.768709861779895	0.0	0.9630698824724968	-0.8097108108633913	0.0	0.9488499879324143	-0.8085732030127772	0.0	0.9284930495482727	-0.7796987166692279	0.0	0.9911456600701612	-0.5245631111851546	0.0	1.0378145589233394	-0.633497569506354	0.0	1.0298616272945291	-0.7504581558909046	0.0	1.0492714273643982	-0.7872296866636989	0.0	1.0531262212258243	-0.7777217473759284	0.0	1.0202280278470852	-0.7642913487530867	0.0	0.9624334779721614	-0.3519403246645029	0.0	0.963287072652038	-0.2951161546651018	0.0	0.9819969046910867	-0.3189234758704957	0.0	0.9489139263803233	-0.36579619607520963	0.0	0.9737562959965268	-0.2849529293462542	0.0	0.9952828549937819	-0.2158766285334581	0.0	0.9828197877303104	-0.36112830275126384	0.0	1.0312303265265736	-0.31600281006882297	0.0	1.0799067023234348	-0.27329083916538816	0.0
42	1.413333333333333	0.9740781560795219	-0.5178395650679897	0.0	0.9595136102341414	-0.5228563494870017	0.0	0.9659244696731439	-0.6449527199799215	0.0	0.9428599058999764	-0.7676002921656406	0.0	0.9646886966115027	-0.8081180662662959	0.0	0.9505232368043374	-0.8066313605175385	0.0	0.9329342911751095	-0.7789720877882561	0.0	0.9914521945083293	-0.5194552413668836	0.0	1.036137136042895	-0.628988487606033	0.0	1.0359522927408398	-0.746639048596855	0.0	1.053194267036406	-0.7823087846789388	0.0	1.0569570057392197	-0.7734027656679858	0.0	1.0271392551895941	-0.7616033374758786	0.0	0.9600472445998403	-0.346271797858297	0.0	0.9588754971744768	-0.2892374889345978	0.0	0.9772573232850943	-0.31255216007502906	0.0	0.9477340050570682	-0.3591067687516105	0.0	0.9685554287466397	-0.27689805189944267	0.0	0.9849133034278522	-0.20748298206018156	0.0	0.9797879499806442	-0.3554815075057362	0.0	1.024179883395152	-0.3079203626199076	0.0	1.0680603751905773	-0.2653402218650754	0.0
43	1.4469841269841268	0.9734675662829274	-0.5162621286814071	0.0	0.9582648398615861	-0.5212650234470736	0.0	0.9611211002797005	-0.6451897344877988	0.0	0.9441737215275998	-0.7688019837988143	0.0	0.9652428021641587	-0.808555804278465	0.0	0.9511401599537364	-0.8067095049738503	0.0	0.9354474747379966	-0.7802678423959806	0.0	0.9915040888216508	-0.5184505990087579	0.0	1.0354810358067867	-0.6277073694232123	0.0	1.0399903873199825	-0.7454888822664913	0.0	1.0554206134760393	-0.7809410845703343	0.0	1.0591275949055816	-0.7727041747132238	0.0	1.0314490716787528	-0.7609431548628923	0.0	0.9581335149990986	-0.34538227665099974	0.0	0.9552452023646018	-0.28853426385462344	0.0	0.9738816441067653	-0.3112797221270091	0.0	0.946363338783727	-0.35752308882390194	0.0	0.963445048232237	-0.27567080750162365	0.0	0.9748191912583684	-0.2069778810590622	0.0	0.9771850110267161	-0.3548347391267457	0.0	1.016871984650759	-0.30519916219887666	0.0	1.0554240265491168	-0.2622114028340413	0.0
44	1.4806349206349205	0.9727001037686315	-0.5187338031604691	0.0	0.9568533386650847	-0.5240037669578698	0.0	0.9583169506242167	-0.6487951595463425	0.0	0.943906703502313	-0.7726367057473241	0.0	0.9649514237175615	-0.811426210857402	0.0	0.9508703910452009	-0.8093517576730235	0.0	0.9359242704150776	-0.7840454881937778	0.0	0.9913649914999555	-0.5213328106882807	0.0	1.035957197037532	-0.6294360531926076	0.0	1.0419461406027026	-0.747337960627416	0.0	1.0559899716390788	-0.7833984971392819	0.0	1.059758908119923	-0.775802243629606	0.0	1.033232684643845	-0.762826259676191	0.0	0.9566790816833486	-0.3491932378554175	0.0	0.9523513458723127	-0.29266693101703006	0.0	0.9720131279435481	-0.31481267213129704	0.0	0.9447611881589973	-0.36123355817488073	0.0	0.9583843286165128	-0.28092617381789187	0.0	0.9651921801441774	-0.21408473840086262	0.0	0.9750677041666446	-0.35891044517977366	0.0	1.0092769789647509	-0.3077050629371816	0.0	1.0424067267047459	-0.26389293586521784	0.0
45	1.514285714285714	0.9718356693650552	-0.525396509146129	0.0	0.9554620435822758	-0.5310373964400302	0.0	0.9570809258369307	-0.6557218064739675	0.0	0.9422977691254031	-0.779185006065071	0.0	0.9641348772850253	-0.816963863610221	0.0	0.9500105060922257	-0.8148634641123048	0.0	0.9345837888929515	-0.7905463840982311	0.0	0.9910782370960108	-0.5279710642442483	0.0	1.0374344342509476	-0.6342347022979494	0.0	1.0420323895998846	-0.7524311606257811	0.0	1.0551540221917655	-0.7896732354041491	0.0	1.059082147394065	-0.7825816664723911	0.0	1.0328651167207796	-0.767617120792399	0.0	0.955573532440681	-0.35753469763839213	0.0	0.9500506415482094	-0.3011249774253581	0.0	0.9712645068863137	-0.32278945861247627	0.0	0.9429767774159098	-0.3701743621310443	0.0	0.9532434506774493	-0.2921370424115754	0.0	0.9560776258701754	-0.22803082406285	0.0	0.9733994619164029	-0.3674655368402241	0.0	1.0013048751637823	-0.3153457805854453	0.0	1.0291795151258183	-0.27057090149161805	0.0
